<?xml version="1.0" encoding="utf-8"?>
<!-- Generator: Adobe Illustrator 26.0.0, SVG Export Plug-In . SVG Version: 6.00 Build 0)  -->
<svg version="1.1" id="Capa_1" xmlns="http://www.w3.org/2000/svg" xmlns:xlink="http://www.w3.org/1999/xlink" x="0px" y="0px"
	 viewBox="0 0 1003.11 1009.53" style="enable-background:new 0 0 1003.11 1009.53;" xml:space="preserve">
<style type="text/css">
	.st0{fill:#D68938;}
	.st1{fill:#FFFFFF;}
</style>
<g>
	<path class="st0" d="M405.65,1007.39c-0.87-2.55-1.47-4.98-2.51-7.2c-1.36-2.89-3.49-3.06-5.5-0.53c-1.18,1.48-2.22,3.11-3.11,4.77
		c-1.7,3.17-4.27,3.79-7.17,2.21c-2.69-1.47-5.1-3.44-7.62-5.23c-1.45-1.03-2.78-2.25-4.29-3.18c-4.6-2.82-8.59-2.01-11.83,2.28
		c-5.57,7.37-9.82,8.16-17.44,3.02c-3.64-2.46-7.08-5.23-10.7-7.72c-8.59-5.91-14.4-4.72-20.01,4.02c-1.01,1.58-1.9,3.24-3.66,4.87
		c-0.52-3.56-1.01-7.13-1.55-10.69c-1.19-7.72-2.33-15.45-3.68-23.14c-0.21-1.22-1.37-2.27-2.09-3.4c-0.82,1.04-1.93,1.96-2.41,3.14
		c-1.11,2.74-1.72,5.69-2.92,8.39c-0.74,1.66-2.36,2.91-3.25,4.53c-0.82,1.49-1.62,3.21-1.67,4.86c-0.19,6.28-0.08,12.57-0.08,19.45
		c-0.84-1.87-1.97-3.47-2.26-5.21c-1.4-8.3-2.59-16.63-3.82-24.96c-1.18-7.96-2.22-15.95-3.54-23.89c-0.22-1.31-1.53-2.44-2.34-3.65
		c-1,1.04-2.26,1.93-2.93,3.15c-0.9,1.64-1.58,3.5-1.9,5.34c-0.22,1.3-0.17,3.46,0.6,3.98c5.29,3.53,3.16,8.76,3.11,13.33
		c-0.02,2.01,0.7,6.32-4.28,4.62c-0.27-0.09-1.71,1.86-1.8,2.94c-0.42,4.73-0.42,9.5-0.85,14.23c-0.22,2.45-0.85,4.9-1.64,7.24
		c-0.37,1.1-1.56,1.93-2.38,2.89c-0.92-0.82-2.16-1.48-2.69-2.5c-1.76-3.37-3.18-6.9-4.87-10.31c-2.23-4.5-3.18-4.75-7.78-1.68
		c0-3.29-0.06-6.14,0.02-9c0.08-3.09,0.45-6.17,0.39-9.26c-0.02-1.29-0.82-2.57-1.26-3.86c-1.19,0.82-2.75,1.39-3.49,2.51
		c-1.91,2.86-3.46,5.95-5.15,8.96c-0.57,1.02-1.13,2.04-1.52,2.74c-7.1-4.03-13.81-8.32-20.92-11.78
		c-12.3-5.97-25.48-9.21-39.11-9.75c-16.03-0.64-32.08-0.58-48.12-0.82c-16.67-0.25-33.25-1.32-49.23-6.62
		c-19.95-6.62-36.41-18.57-49.77-34.55c-7.68-9.18-14.06-19.43-21.27-29.02c-3.77-5.01-4.16-10.42-3.18-16.21
		c1.39-8.19,3.1-16.34,4.08-24.57c0.37-3.12-0.73-6.47-1.45-9.65c-0.92-4.1-2.78-8.08-3.07-12.2c-0.79-10.9-0.66-21.86-1.44-32.76
		c-0.72-10.05-2.35-20.02-3.23-30.06c-0.99-11.25-1.16-22.52,0.78-33.74c0.3-1.72,0.64-3.67,0.15-5.27
		c-4.14-13.51-2.78-26.98-0.15-40.5c2.36-12.14,4.35-24.31,2.73-36.78c-0.28-2.12,0.29-4.53,1.07-6.58c1.3-3.39,4.14-4.6,7.48-3.71
		c4.54,1.21,5.57,0.88,6.45-3.73c1-5.22,1.54-10.55,1.88-15.86c0.62-9.76,3.22-18.93,7.74-27.54c2.91-5.53,7.5-9.43,12.89-12.5
		c3.61-2.06,7.12-4.29,10.63-6.51c2-1.26,2.68-3.06,2.32-5.49c-1.87-12.67-3.88-25.32-5.37-38.03c-2.52-21.51-4.28-43.11-2.53-64.78
		c0.96-11.81,2.74-23.55,4.12-35.32c0.08-0.67,0.11-1.52-0.22-2.05c-2.12-3.38-3.59-7.94-6.67-9.8
		c-9.57-5.76-11.73-14.97-13.54-24.67c-0.4-2.16-0.94-4.3-1.67-7.61c-2.12,2.41-3.51,4-5.4,6.15c-0.35-1.38-0.76-2.28-0.77-3.18
		c-0.33-30.56-6.26-60.36-11.84-90.23c-3.53-18.89-6.57-37.87-9.62-56.85c-3.14-19.5-5.17-39.14-4-58.9
		c1.28-21.54,7.49-41.12,24.7-55.67c9.15-7.73,20.02-12.2,31.08-16.32c6.67-2.49,14.25-3.88,19.71-8.03
		c13.64-10.37,29.39-15.74,45.07-21.29c15.64-5.54,31.56-10.36,47.53-14.92c22.94-6.56,46.39-11,70.01-14.14
		c19.28-2.57,38.68-4.34,58.07-5.92c39.64-3.21,79.38-2.44,119.08-1.96c23.64,0.29,47.28,1.48,70.92,2.02
		c36.02,0.82,72.05,1.7,108.07,1.93c8.8,0.05,17.67-2.08,26.41-3.7c38.7-7.15,77.3-14.84,116.06-21.58
		c20.43-3.55,41.09-5.92,61.72-8.12c13.2-1.41,26.53-1.48,39.8-2.27c2.09-0.13,4.16-0.83,6.2-1.41C860.46,9.02,872.82,4.61,885.54,2
		c26.05-5.35,47.74,2.96,64.94,23.16c12.88,15.13,21.46,32.71,29.12,50.86c7.51,17.8,10.98,36.59,13.29,55.56
		c2.49,20.49,4.31,41.08,5.89,61.67c1.16,15.04,1.84,30.15,2.08,45.23c0.63,38.79,1.27,77.59,1.23,116.38
		c-0.04,43.8-0.76,87.61-1.32,131.41c-0.27,20.83-0.75,41.65-1.35,62.47c-0.59,20.32-1.49,40.63-2.17,60.95
		c-0.5,15.09-1.09,30.18-1.24,45.28c-0.4,39.75-0.23,79.51-0.98,119.25c-0.45,23.77-1.95,47.52-3.43,71.25
		c-1.61,25.73-4.88,51.28-10.8,76.41c-1.6,6.79-4.03,13.4-6.29,20.01c-0.44,1.3-1.66,2.68-2.89,3.31
		c-24.95,12.82-49.96,25.51-74.94,38.28c-10.34,5.28-21.69,7.04-32.88,8.82c-17.66,2.8-35.44,4.93-53.21,6.9
		c-8.37,0.93-16.85,1-25.29,1.15c-16.65,0.29-33.3,0.69-49.94,0.46c-29.25-0.41-58.49-1.83-87.74-1.74
		c-22.8,0.07-45.63,1.31-68.38,2.93c-12.84,0.91-25.53,3.77-38.32,5.43c-2.79,0.36-5.81-0.45-8.64-1.08
		c-15.44-3.42-31.02-3.89-46.72-2.67c-10.76,0.84-21.52,1.7-32.3,2.34c-12.92,0.77-25.85,1.37-38.77,1.89
		C411.54,1008.05,408.58,1007.58,405.65,1007.39z M309.91,646.08c-1.11,2.08-1.96,3.61-2.75,5.17
		c-8.86,17.37-17.72,34.74-26.58,52.12c-16.58,32.52-33.16,65.04-49.79,97.53c-1.08,2.11-1.45,3.73,0.37,5.71
		c10.79,11.7,21.05,23.92,32.3,35.17c21.88,21.88,47.44,38.31,76.46,49.23c16.23,6.1,32.95,10.19,50.26,10.9
		c16.86,0.7,33.73,0.03,50.56-1.83c33.05-3.65,64.84-11.85,95.23-25.34c43.7-19.39,80.35-47.77,108.84-86.34
		c19.39-26.25,33.95-54.89,42.39-86.58c9.52-35.78,10.17-72.11,6.97-108.66c-2.76-31.58-11.99-61.16-27.72-88.76
		c-14.92-26.18-34.73-47.89-59.23-65.21c-12.6-8.91-25.94-16.78-38.86-25.24c-18.92-12.38-37.16-25.52-52.45-42.53
		c-18.21-20.25-22.26-54.61-6.01-78.01c12.45-17.92,28.88-30.78,48.26-40.02c5.44-2.59,11.81-4.71,17.7-4.59
		c17.51,0.35,29.2,9.91,34.78,26.26c6.07,17.81,6.32,36.15,2.93,54.57c-0.91,4.96-2.1,9.88-3.28,15.38
		c1.72-0.31,2.87-0.41,3.95-0.72c50.36-14.57,100.71-29.19,151.1-43.69c2.7-0.78,3.55-2.25,3.85-4.71
		c0.55-4.59,1.24-9.16,1.85-13.75c1.75-13.06,4.31-26.07,4.97-39.18c0.57-11.31-0.2-22.86-1.84-34.09
		c-5.68-39.02-26.02-68.1-61.07-86.35c-20.5-10.68-42.92-14.46-65.69-15.73c-22.49-1.25-44.92,0.32-67.1,4.38
		c-34.73,6.36-68.06,17.26-100.12,31.96c-49.81,22.84-94.56,52.8-130.95,94.33c-13.59,15.51-25.9,31.95-35.61,50.21
		c-12.91,24.29-20.01,50.17-21.17,77.69c-0.97,23.16,2.89,45.24,14.3,65.66c17.79,31.83,43.06,57.02,71.44,79.21
		c18.9,14.78,38.54,28.62,57.78,42.96c20.62,15.37,40.67,31.35,57.64,50.9c14.11,16.25,24.04,34.09,24.24,56.3
		c0.08,9.32-1.43,18.16-6.14,26.32c-5.91,10.23-14.17,18.16-24.15,24.25c-20.68,12.63-42.86,17.79-66.77,11.84
		c-19.16-4.76-36.94-13.03-53.92-22.98c-22.37-13.1-41.64-29.55-55.27-51.99C311.31,647.39,310.83,647.04,309.91,646.08z"/>
	<path class="st1" d="M309.91,646.08c0.92,0.96,1.39,1.31,1.68,1.78c13.63,22.44,32.91,38.89,55.27,51.99
		c16.98,9.95,34.77,18.22,53.92,22.98c23.91,5.95,46.09,0.78,66.77-11.84c9.98-6.09,18.24-14.03,24.15-24.25
		c4.71-8.16,6.22-17,6.14-26.32c-0.19-22.21-10.13-40.05-24.24-56.3c-16.98-19.55-37.03-35.53-57.64-50.9
		c-19.24-14.34-38.88-28.18-57.78-42.96c-28.38-22.19-53.65-47.38-71.44-79.21c-11.41-20.42-15.27-42.5-14.3-65.66
		c1.16-27.52,8.26-53.41,21.17-77.69c9.71-18.26,22.02-34.7,35.61-50.21c36.39-41.53,81.14-71.49,130.95-94.33
		c32.06-14.7,65.39-25.6,100.12-31.96c22.18-4.06,44.61-5.64,67.1-4.38c22.77,1.27,45.18,5.05,65.69,15.73
		c35.05,18.25,55.39,47.33,61.07,86.35c1.63,11.23,2.41,22.77,1.84,34.09c-0.66,13.11-3.22,26.13-4.97,39.18
		c-0.61,4.58-1.31,9.16-1.85,13.75c-0.29,2.46-1.14,3.93-3.85,4.71c-50.39,14.5-100.74,29.11-151.1,43.69
		c-1.08,0.31-2.23,0.41-3.95,0.72c1.18-5.5,2.36-10.42,3.28-15.38c3.39-18.42,3.15-36.76-2.93-54.57
		c-5.58-16.35-17.27-25.91-34.78-26.26c-5.89-0.12-12.26,2-17.7,4.59c-19.38,9.23-35.81,22.1-48.26,40.02
		c-16.25,23.4-12.2,57.76,6.01,78.01c15.3,17.01,33.53,30.14,52.45,42.53c12.93,8.46,26.26,16.33,38.86,25.24
		c24.5,17.32,44.31,39.03,59.23,65.21c15.73,27.6,24.96,57.18,27.72,88.76c3.2,36.55,2.55,72.88-6.97,108.66
		c-8.43,31.68-23,60.33-42.39,86.58c-28.49,38.56-65.14,66.94-108.84,86.34c-30.39,13.49-62.18,21.68-95.23,25.34
		c-16.83,1.86-33.69,2.53-50.56,1.83c-17.31-0.72-34.03-4.8-50.26-10.9c-29.03-10.92-54.58-27.35-76.46-49.23
		c-11.24-11.24-21.51-23.46-32.3-35.17c-1.82-1.97-1.45-3.6-0.37-5.71c16.63-32.49,33.21-65.01,49.79-97.53
		c8.86-17.37,17.72-34.75,26.58-52.12C307.95,649.69,308.8,648.16,309.91,646.08z"/>
</g>
</svg>
